<svg width="142" height="26" viewBox="0 0 142 26" fill="none" xmlns="http://www.w3.org/2000/svg">
<path d="M8.12538 6.48C10.3987 6.48 12.1367 7.11067 13.3394 8.372C14.5567 9.63333 15.1654 11.4227 15.1654 13.74C15.1654 16.0573 14.5567 17.8467 13.3394 19.108C12.1367 20.3693 10.3987 21 8.12538 21H1.96538V6.48H8.12538ZM7.75138 18.14C8.98338 18.14 9.87804 17.7733 10.4354 17.04C11.0074 16.292 11.2934 15.192 11.2934 13.74C11.2934 12.288 11.0074 11.1953 10.4354 10.462C9.87804 9.714 8.98338 9.34 7.75138 9.34H5.74938V18.14H7.75138ZM22.8604 21.22C21.0271 21.22 19.5751 20.7213 18.5044 19.724C17.4484 18.7267 16.9204 17.3187 16.9204 15.5C16.9204 14.2973 17.1624 13.2707 17.6464 12.42C18.1451 11.5547 18.8197 10.902 19.6704 10.462C20.5357 10.0073 21.5404 9.78 22.6844 9.78C23.8431 9.78 24.8257 10.0073 25.6324 10.462C26.4537 10.902 27.0771 11.518 27.5024 12.31C27.9277 13.0873 28.1404 13.982 28.1404 14.994C28.1404 15.2727 28.1257 15.544 28.0964 15.808C28.0817 16.0573 28.0671 16.27 28.0524 16.446H20.5504C20.6531 17.2087 20.9024 17.7587 21.2984 18.096C21.6944 18.4187 22.2151 18.58 22.8604 18.58C23.4177 18.58 23.8577 18.47 24.1804 18.25C24.5177 18.03 24.7671 17.722 24.9284 17.326L27.9204 18.316C27.7151 18.9467 27.3557 19.482 26.8424 19.922C26.3437 20.3473 25.7424 20.67 25.0384 20.89C24.3491 21.11 23.6231 21.22 22.8604 21.22ZM22.6844 12.398C21.4964 12.398 20.7924 13.08 20.5724 14.444H24.5984C24.4371 13.08 23.7991 12.398 22.6844 12.398ZM35.4466 9.78C36.5613 9.78 37.4853 9.94133 38.2186 10.264C38.9666 10.5867 39.546 11.0047 39.9566 11.518C40.3673 12.0313 40.6313 12.5887 40.7486 13.19L37.2946 14.334C37.2066 13.7033 37.0233 13.234 36.7446 12.926C36.466 12.6033 36.07 12.442 35.5566 12.442C34.8526 12.442 34.3173 12.6913 33.9506 13.19C33.5986 13.6887 33.4226 14.4733 33.4226 15.544C33.4226 16.6293 33.6133 17.4067 33.9946 17.876C34.3906 18.3307 34.9186 18.558 35.5786 18.558C36.62 18.558 37.2286 17.964 37.4046 16.776L40.7706 17.854C40.6093 18.8073 40.074 19.6067 39.1646 20.252C38.27 20.8973 37.082 21.22 35.6006 21.22C33.7966 21.22 32.352 20.7213 31.2666 19.724C30.196 18.712 29.6606 17.304 29.6606 15.5C29.6606 14.2973 29.9026 13.2707 30.3866 12.42C30.8853 11.5693 31.5673 10.9167 32.4326 10.462C33.298 10.0073 34.3026 9.78 35.4466 9.78ZM44.585 8.724C43.8224 8.724 43.265 8.58467 42.913 8.306C42.5757 8.01267 42.407 7.558 42.407 6.942C42.407 6.31133 42.5757 5.85667 42.913 5.578C43.265 5.28467 43.8224 5.138 44.585 5.138C45.333 5.138 45.883 5.28467 46.235 5.578C46.587 5.85667 46.763 6.31133 46.763 6.942C46.763 7.558 46.587 8.01267 46.235 8.306C45.883 8.58467 45.333 8.724 44.585 8.724ZM46.455 10V21H42.715V10H46.455ZM53.7374 21.22C52.6374 21.22 51.6181 21.044 50.6794 20.692C49.7407 20.3253 48.9561 19.8047 48.3254 19.13L50.0854 17.062C50.4521 17.5313 50.9361 17.9273 51.5374 18.25C52.1534 18.558 52.8354 18.712 53.5834 18.712C54.0381 18.712 54.4121 18.646 54.7054 18.514C54.9987 18.382 55.1454 18.1767 55.1454 17.898C55.1454 17.7073 55.0721 17.546 54.9254 17.414C54.7787 17.282 54.4854 17.172 54.0454 17.084L52.5054 16.776C51.1267 16.4973 50.1441 16.0867 49.5574 15.544C48.9854 14.9867 48.6994 14.2607 48.6994 13.366C48.6994 12.7647 48.8827 12.1927 49.2494 11.65C49.6161 11.1073 50.1807 10.66 50.9434 10.308C51.7061 9.956 52.6814 9.78 53.8694 9.78C56.1427 9.78 57.8001 10.4107 58.8414 11.672L57.0594 13.696C56.7074 13.256 56.2527 12.9113 55.6954 12.662C55.1381 12.4127 54.5807 12.288 54.0234 12.288C52.9527 12.288 52.4174 12.5593 52.4174 13.102C52.4174 13.2927 52.5054 13.4613 52.6814 13.608C52.8721 13.7547 53.2167 13.872 53.7154 13.96L55.7174 14.356C56.8467 14.576 57.6607 14.9573 58.1594 15.5C58.6581 16.028 58.9074 16.6733 58.9074 17.436C58.9074 18.5067 58.4747 19.4087 57.6094 20.142C56.7587 20.8607 55.4681 21.22 53.7374 21.22ZM62.7179 8.724C61.9552 8.724 61.3979 8.58467 61.0459 8.306C60.7085 8.01267 60.5399 7.558 60.5399 6.942C60.5399 6.31133 60.7085 5.85667 61.0459 5.578C61.3979 5.28467 61.9552 5.138 62.7179 5.138C63.4659 5.138 64.0159 5.28467 64.3679 5.578C64.7199 5.85667 64.8959 6.31133 64.8959 6.942C64.8959 7.558 64.7199 8.01267 64.3679 8.306C64.0159 8.58467 63.4659 8.724 62.7179 8.724ZM64.5879 10V21H60.8479V10H64.5879ZM79.84 21V10H83.184L83.294 12.222C83.6314 11.4153 84.1227 10.8067 84.768 10.396C85.4134 9.98533 86.176 9.78 87.056 9.78C88.1854 9.78 89.102 10.11 89.806 10.77C90.51 11.43 90.862 12.398 90.862 13.674V21H87.122V14.664C87.122 13.9013 86.9754 13.3733 86.682 13.08C86.3887 12.7867 86.0147 12.64 85.56 12.64C85.0174 12.64 84.548 12.8307 84.152 13.212C83.7707 13.5933 83.58 14.246 83.58 15.17V21H79.84ZM99.8637 6.48C102.137 6.48 103.875 7.11067 105.078 8.372C106.295 9.63333 106.904 11.4227 106.904 13.74C106.904 16.0573 106.295 17.8467 105.078 19.108C103.875 20.3693 102.137 21 99.8637 21H93.7037V6.48H99.8637ZM99.4897 18.14C100.722 18.14 101.616 17.7733 102.174 17.04C102.746 16.292 103.032 15.192 103.032 13.74C103.032 12.288 102.746 11.1953 102.174 10.462C101.616 9.714 100.722 9.34 99.4897 9.34H97.4877V18.14H99.4897ZM129.525 10V12.662H126.247V17.084C126.247 17.612 126.371 17.9933 126.621 18.228C126.885 18.448 127.244 18.558 127.699 18.558C128.051 18.558 128.351 18.5213 128.601 18.448C128.85 18.36 129.085 18.2353 129.305 18.074L129.701 20.384C129.334 20.6333 128.865 20.8387 128.293 21C127.735 21.1467 127.171 21.22 126.599 21.22C125.337 21.22 124.34 20.956 123.607 20.428C122.888 19.8853 122.521 18.976 122.507 17.7V12.662H120.615V10H122.507V7.536L126.247 6.502V10H129.525ZM135.872 21.22C134.772 21.22 133.753 21.044 132.814 20.692C131.875 20.3253 131.091 19.8047 130.46 19.13L132.22 17.062C132.587 17.5313 133.071 17.9273 133.672 18.25C134.288 18.558 134.97 18.712 135.718 18.712C136.173 18.712 136.547 18.646 136.84 18.514C137.133 18.382 137.28 18.1767 137.28 17.898C137.28 17.7073 137.207 17.546 137.06 17.414C136.913 17.282 136.62 17.172 136.18 17.084L134.64 16.776C133.261 16.4973 132.279 16.0867 131.692 15.544C131.12 14.9867 130.834 14.2607 130.834 13.366C130.834 12.7647 131.017 12.1927 131.384 11.65C131.751 11.1073 132.315 10.66 133.078 10.308C133.841 9.956 134.816 9.78 136.004 9.78C138.277 9.78 139.935 10.4107 140.976 11.672L139.194 13.696C138.842 13.256 138.387 12.9113 137.83 12.662C137.273 12.4127 136.715 12.288 136.158 12.288C135.087 12.288 134.552 12.5593 134.552 13.102C134.552 13.2927 134.64 13.4613 134.816 13.608C135.007 13.7547 135.351 13.872 135.85 13.96L137.852 14.356C138.981 14.576 139.795 14.9573 140.294 15.5C140.793 16.028 141.042 16.6733 141.042 17.436C141.042 18.5067 140.609 19.4087 139.744 20.142C138.893 20.8607 137.603 21.22 135.872 21.22Z" fill="white"/>
<circle cx="72.5" cy="15.5" r="5.5" fill="#39C959"/>
<circle cx="114.5" cy="15.5" r="5.5" fill="#39C959"/>
</svg>
